<svg xmlns="http://www.w3.org/2000/svg" viewBox="0 0 32 32">
  <style>
    .fav-dark { display: none; }
    @media (prefers-color-scheme: dark) {
      .fav-light { display: none; }
      .fav-dark { display: inline; }
    }
  </style>
  <g class="fav-light">
    <rect x="1" y="1" width="30" height="30" rx="7" fill="#faf9f5" stroke="rgba(31,30,29,0.35)" stroke-width="1"/>
    <rect x="3" y="3" width="5" height="5" rx="1.1" fill="#ececec"/>
    <rect x="10" y="3" width="5" height="5" rx="1.1" fill="#363634"/>
    <rect x="17" y="3" width="5" height="5" rx="1.1" fill="#000000"/>
    <rect x="24" y="3" width="5" height="5" rx="1.1" fill="#ececec"/>
    <rect x="3" y="10" width="5" height="5" rx="1.1" fill="#000000"/>
    <rect x="10" y="10" width="5" height="5" rx="1.1" fill="#363634"/>
    <rect x="17" y="10" width="5" height="5" rx="1.1" fill="#000000"/>
    <rect x="24" y="10" width="5" height="5" rx="1.1" fill="#363634"/>
    <rect x="3" y="17" width="5" height="5" rx="1.1" fill="#363634"/>
    <rect x="10" y="17" width="5" height="5" rx="1.1" fill="#000000"/>
    <rect x="17" y="17" width="5" height="5" rx="1.1" fill="#000000"/>
    <rect x="24" y="17" width="5" height="5" rx="1.1" fill="#363634"/>
    <rect x="3" y="24" width="5" height="5" rx="1.1" fill="#ececec"/>
    <rect x="10" y="24" width="5" height="5" rx="1.1" fill="#363634"/>
    <rect x="17" y="24" width="5" height="5" rx="1.1" fill="#000000"/>
    <rect x="24" y="24" width="5" height="5" rx="1.1" fill="#ececec"/>
  </g>
  <g class="fav-dark">
    <rect x="1" y="1" width="30" height="30" rx="7" fill="#181614" stroke="rgba(255,255,255,0.28)" stroke-width="1"/>
    <rect x="3" y="3" width="5" height="5" rx="1.1" fill="#24221f"/>
    <rect x="10" y="3" width="5" height="5" rx="1.1" fill="#c7b79e"/>
    <rect x="17" y="3" width="5" height="5" rx="1.1" fill="#ffe0ad"/>
    <rect x="24" y="3" width="5" height="5" rx="1.1" fill="#24221f"/>
    <rect x="3" y="10" width="5" height="5" rx="1.1" fill="#ffe0ad"/>
    <rect x="10" y="10" width="5" height="5" rx="1.1" fill="#c7b79e"/>
    <rect x="17" y="10" width="5" height="5" rx="1.1" fill="#ffe0ad"/>
    <rect x="24" y="10" width="5" height="5" rx="1.1" fill="#c7b79e"/>
    <rect x="3" y="17" width="5" height="5" rx="1.1" fill="#c7b79e"/>
    <rect x="10" y="17" width="5" height="5" rx="1.1" fill="#ffe0ad"/>
    <rect x="17" y="17" width="5" height="5" rx="1.1" fill="#ffe0ad"/>
    <rect x="24" y="17" width="5" height="5" rx="1.1" fill="#c7b79e"/>
    <rect x="3" y="24" width="5" height="5" rx="1.1" fill="#24221f"/>
    <rect x="10" y="24" width="5" height="5" rx="1.1" fill="#c7b79e"/>
    <rect x="17" y="24" width="5" height="5" rx="1.1" fill="#ffe0ad"/>
    <rect x="24" y="24" width="5" height="5" rx="1.1" fill="#24221f"/>
  </g>
</svg>
